<svg class="diagram-root" style="background: #f5f6f6" xmlns="http://www.w3.org/2000/svg" xmlns:xlink="http://www.w3.org/1999/xlink"><style>.diagram-root { font-family: "Helvetica Neue", sans-serif; font-size: 12px; } .t { overflow: visible; } .t-bg { y: 40; fill: #fff;   } .th { fill: #005aa0;   } .tht { fill: #fff; font-size: 14px;  } .tf { fill: #323c46; overflow: visible; } .tf.pk { fill: #005aa0; font-weight: bold; } .tf.fk { font-weight: bold; } .ty { fill: #adb1b5; font-weight: normal; text-anchor: end; } .r { fill: transparent; stroke: #c3c3c3; stroke-width: 1; } .l { stroke: 1; } .i { fill: #c2c7ce; stroke: #c2c7ce; } .i.ix { fill: #afb3b6; stroke: #000; } .fa { fill: transparent; overflow: visible; } .fa .bg.hover { fill: #f7f7f7; } .c { cy: 12; r: 4; stroke: #d2d2dc; fill: #d2d2dc; } .hr { fill: transparent; stroke: #323c46; stroke-opacity: 0.035; stroke-width: 13; } .dc { stroke: #fa5a3c; fill: #fa5a3c; } .x { stroke: white; stroke-width: 1; } .hl .th { fill: #1b9bff; } .hl .tht {  } .fhl .bg { fill: #e7f4ff; } .fhls .bg {  } .r.hl { stroke: #1b9bff; } .dim { opacity: 0.25; }</style><g class="drawing-wrapper" transform="translate(2, 18) scale(1,1)"><g class="rs"><path d="M 297.07 729.5 m -1, 0 a 1,1 0 1,0 2,0 a 1,1 0 1,0 -2,0 M 297.07 729.5 m -0.5, 0 a 0.5,0.5 0 1,0 1,0 a 0.5,0.5 0 1,0 -1,0  M297.07 729.5 L297.07 729.5 309.07 729.5 M 297.07 735.5 m -1, 0 a 1,1 0 1,0 2,0 a 1,1 0 1,0 -2,0 M 297.07 735.5 m -0.5, 0 a 0.5,0.5 0 1,0 1,0 a 0.5,0.5 0 1,0 -1,0  M297.07 735.5 L297.07 735.5 304.07 729.5 297.07 723.5 M 297.07 723.5 m -1, 0 a 1,1 0 1,0 2,0 a 1,1 0 1,0 -2,0 M 297.07 723.5 m -0.5, 0 a 0.5,0.5 0 1,0 1,0 a 0.5,0.5 0 1,0 -1,0  M309.07 729.5 C 359.07 729.5, 397.27199999999993 333.25, 245.4 333.25 M 233.4 333.25 m -1, 0 a 1,1 0 1,0 2,0 a 1,1 0 1,0 -2,0 M 233.4 333.25 m -0.5, 0 a 0.5,0.5 0 1,0 1,0 a 0.5,0.5 0 1,0 -1,0  M233.4 333.25 L233.4 333.25 245.4 333.25 M239.4 339.25 L239.4 339.25 239.4 327.25" id="h1139284389" class="r"></path><path d="M 297.07 754.5 m -1, 0 a 1,1 0 1,0 2,0 a 1,1 0 1,0 -2,0 M 297.07 754.5 m -0.5, 0 a 0.5,0.5 0 1,0 1,0 a 0.5,0.5 0 1,0 -1,0  M297.07 754.5 L297.07 754.5 309.07 754.5 M 297.07 760.5 m -1, 0 a 1,1 0 1,0 2,0 a 1,1 0 1,0 -2,0 M 297.07 760.5 m -0.5, 0 a 0.5,0.5 0 1,0 1,0 a 0.5,0.5 0 1,0 -1,0  M297.07 760.5 L297.07 760.5 304.07 754.5 297.07 748.5 M 297.07 748.5 m -1, 0 a 1,1 0 1,0 2,0 a 1,1 0 1,0 -2,0 M 297.07 748.5 m -0.5, 0 a 0.5,0.5 0 1,0 1,0 a 0.5,0.5 0 1,0 -1,0  M309.07 754.5 C 359.07 754.5, 428.07 87, 194.07 87 M 182.07 87 m -1, 0 a 1,1 0 1,0 2,0 a 1,1 0 1,0 -2,0 M 182.07 87 m -0.5, 0 a 0.5,0.5 0 1,0 1,0 a 0.5,0.5 0 1,0 -1,0  M182.07 87 L182.07 87 194.07 87 M188.07 93 L188.07 93 188.07 81" id="h1607168654" class="r"></path><path d="M 863.75 108.25 m -1, 0 a 1,1 0 1,0 2,0 a 1,1 0 1,0 -2,0 M 863.75 108.25 m -0.5, 0 a 0.5,0.5 0 1,0 1,0 a 0.5,0.5 0 1,0 -1,0  M863.75 108.25 L863.75 108.25 851.75 108.25 M 863.75 114.25 m -1, 0 a 1,1 0 1,0 2,0 a 1,1 0 1,0 -2,0 M 863.75 114.25 m -0.5, 0 a 0.5,0.5 0 1,0 1,0 a 0.5,0.5 0 1,0 -1,0  M863.75 114.25 L863.75 114.25 856.75 108.25 863.75 102.25 M 863.75 102.25 m -1, 0 a 1,1 0 1,0 2,0 a 1,1 0 1,0 -2,0 M 863.75 102.25 m -0.5, 0 a 0.5,0.5 0 1,0 1,0 a 0.5,0.5 0 1,0 -1,0  M851.75 108.25 Q 687.33 108.25, 522.91 97.63 T 194.07 87 M 182.07 87 m -1, 0 a 1,1 0 1,0 2,0 a 1,1 0 1,0 -2,0 M 182.07 87 m -0.5, 0 a 0.5,0.5 0 1,0 1,0 a 0.5,0.5 0 1,0 -1,0  M182.07 87 L182.07 87 194.07 87 M188.07 93 L188.07 93 188.07 81" id="h1397587031" class="r"></path><path d="M 863.75 133.25 m -1, 0 a 1,1 0 1,0 2,0 a 1,1 0 1,0 -2,0 M 863.75 133.25 m -0.5, 0 a 0.5,0.5 0 1,0 1,0 a 0.5,0.5 0 1,0 -1,0  M863.75 133.25 L863.75 133.25 851.75 133.25 M 863.75 139.25 m -1, 0 a 1,1 0 1,0 2,0 a 1,1 0 1,0 -2,0 M 863.75 139.25 m -0.5, 0 a 0.5,0.5 0 1,0 1,0 a 0.5,0.5 0 1,0 -1,0  M863.75 139.25 L863.75 139.25 856.75 133.25 863.75 127.25 M 863.75 127.25 m -1, 0 a 1,1 0 1,0 2,0 a 1,1 0 1,0 -2,0 M 863.75 127.25 m -0.5, 0 a 0.5,0.5 0 1,0 1,0 a 0.5,0.5 0 1,0 -1,0  M851.75 133.25 Q 700.17 133.25, 548.58 233.25 T 245.4 333.25 M 233.4 333.25 m -1, 0 a 1,1 0 1,0 2,0 a 1,1 0 1,0 -2,0 M 233.4 333.25 m -0.5, 0 a 0.5,0.5 0 1,0 1,0 a 0.5,0.5 0 1,0 -1,0  M233.4 333.25 L233.4 333.25 245.4 333.25 M239.4 339.25 L239.4 339.25 239.4 327.25" id="h2286254435" class="r"></path><path d="M 966.25 697 m -1, 0 a 1,1 0 1,0 2,0 a 1,1 0 1,0 -2,0 M 966.25 697 m -0.5, 0 a 0.5,0.5 0 1,0 1,0 a 0.5,0.5 0 1,0 -1,0  M966.25 697 L966.25 697 954.25 697 M 966.25 703 m -1, 0 a 1,1 0 1,0 2,0 a 1,1 0 1,0 -2,0 M 966.25 703 m -0.5, 0 a 0.5,0.5 0 1,0 1,0 a 0.5,0.5 0 1,0 -1,0  M966.25 703 L966.25 703 959.25 697 966.25 691 M 966.25 691 m -1, 0 a 1,1 0 1,0 2,0 a 1,1 0 1,0 -2,0 M 966.25 691 m -0.5, 0 a 0.5,0.5 0 1,0 1,0 a 0.5,0.5 0 1,0 -1,0  M954.25 697 Q 777.04 697, 599.83 515.13 T 245.4 333.25 M 233.4 333.25 m -1, 0 a 1,1 0 1,0 2,0 a 1,1 0 1,0 -2,0 M 233.4 333.25 m -0.5, 0 a 0.5,0.5 0 1,0 1,0 a 0.5,0.5 0 1,0 -1,0  M233.4 333.25 L233.4 333.25 245.4 333.25 M239.4 339.25 L239.4 339.25 239.4 327.25" id="h3177548053" class="r"></path><path d="M 932.5 368.25 m -1, 0 a 1,1 0 1,0 2,0 a 1,1 0 1,0 -2,0 M 932.5 368.25 m -0.5, 0 a 0.5,0.5 0 1,0 1,0 a 0.5,0.5 0 1,0 -1,0  M932.5 368.25 L932.5 368.25 920.5 368.25 M 932.5 374.25 m -1, 0 a 1,1 0 1,0 2,0 a 1,1 0 1,0 -2,0 M 932.5 374.25 m -0.5, 0 a 0.5,0.5 0 1,0 1,0 a 0.5,0.5 0 1,0 -1,0  M932.5 374.25 L932.5 374.25 925.5 368.25 932.5 362.25 M 932.5 362.25 m -1, 0 a 1,1 0 1,0 2,0 a 1,1 0 1,0 -2,0 M 932.5 362.25 m -0.5, 0 a 0.5,0.5 0 1,0 1,0 a 0.5,0.5 0 1,0 -1,0  M920.5 368.25 Q 751.73 368.25, 582.95 363.25 T 245.4 358.25 M 233.4 358.25 m -1, 0 a 1,1 0 1,0 2,0 a 1,1 0 1,0 -2,0 M 233.4 358.25 m -0.5, 0 a 0.5,0.5 0 1,0 1,0 a 0.5,0.5 0 1,0 -1,0  M233.4 358.25 L233.4 358.25 245.4 358.25 M239.4 364.25 L239.4 364.25 239.4 352.25" id="h2080551286" class="r"></path></g><g class="hrs"></g><g class="ts"><svg width="152.07" height="100" x="30" y="30" id="h475896179" class="t"><rect height="40" width="152.07" class="th"></rect><text x="13" y="25" class="tht">departments</text><rect height="60" width="152.07" class="t-bg"></rect><text x="13" y="61" class="tf pk">dept_no<tspan x="139.07" class="ty">vanchar</tspan></text><path d="M7,14A2,2 0 0,1 5,12A2,2 0 0,1 7,10A2,2 0 0,1 9,12A2,2 0 0,1 7,14M12.65,10C11.83,7.67 9.61,6 7, 6A6, 6 0 0, 0 1, 12A6, 6 0 0, 0 7, 18C9.61, 18 11.83, 16.33 12.65, 14H17V18H21V14H23V10H12.65Z" class="i pk" transform="translate(76.37859375, 48) scale(0.65)"></path><text x="13" y="86" class="tf">dept_name<tspan x="139.07" class="ty">vanchar</tspan></text></svg><svg width="102.04" height="100" x="966.25" y="640" id="h2472833127" class="t"><rect height="40" width="102.04" class="th"></rect><text x="13" y="25" class="tht">salaries</text><rect height="60" width="102.04" class="t-bg"></rect><text x="13" y="61" class="tf fk">emp_no<tspan x="89.04" class="ty">int</tspan></text><text x="13" y="86" class="tf">salary<tspan x="89.04" class="ty">int</tspan></text></svg><svg width="132.07" height="100" x="165" y="672.5" id="h1090417462" class="t"><rect height="40" width="132.07" class="th"></rect><text x="13" y="25" class="tht">dept_emp</text><rect height="60" width="132.07" class="t-bg"></rect><text x="13" y="61" class="tf fk">emp_no<tspan x="119.07" class="ty">int</tspan></text><text x="13" y="86" class="tf fk">dept_no<tspan x="119.07" class="ty">vanchar</tspan></text></svg><svg width="153.4" height="100" x="932.5" y="311.25" id="h311790747" class="t"><rect height="40" width="153.4" class="th"></rect><text x="13" y="25" class="tht">titles</text><rect height="60" width="153.4" class="t-bg"></rect><text x="13" y="61" class="tf fk">emp_title_id<tspan x="140.4" class="ty">vanchar</tspan></text><text x="13" y="86" class="tf">title<tspan x="140.4" class="ty">vanchar</tspan></text></svg><svg width="132.07" height="100" x="863.75" y="51.25" id="h1676682957" class="t"><rect height="40" width="132.07" class="th"></rect><text x="13" y="25" class="tht">dept_manager</text><rect height="60" width="132.07" class="t-bg"></rect><text x="13" y="61" class="tf fk">dept_no<tspan x="119.07" class="ty">vanchar</tspan></text><text x="13" y="86" class="tf fk">emp_no<tspan x="119.07" class="ty">int</tspan></text></svg><svg width="173.4" height="225" x="60" y="276.25" id="h1639608377" class="t"><rect height="40" width="173.4" class="th"></rect><text x="13" y="25" class="tht">employees</text><rect height="185" width="173.4" class="t-bg"></rect><text x="13" y="61" class="tf pk">emp_no<tspan x="160.4" class="ty">int</tspan></text><path d="M7,14A2,2 0 0,1 5,12A2,2 0 0,1 7,10A2,2 0 0,1 9,12A2,2 0 0,1 7,14M12.65,10C11.83,7.67 9.61,6 7, 6A6, 6 0 0, 0 1, 12A6, 6 0 0, 0 7, 18C9.61, 18 11.83, 16.33 12.65, 14H17V18H21V14H23V10H12.65Z" class="i pk" transform="translate(127.726171875, 48) scale(0.65)"></path><text x="13" y="86" class="tf pk">emp_title_id<tspan x="160.4" class="ty">vanchar</tspan></text><path d="M7,14A2,2 0 0,1 5,12A2,2 0 0,1 7,10A2,2 0 0,1 9,12A2,2 0 0,1 7,14M12.65,10C11.83,7.67 9.61,6 7, 6A6, 6 0 0, 0 1, 12A6, 6 0 0, 0 7, 18C9.61, 18 11.83, 16.33 12.65, 14H17V18H21V14H23V10H12.65Z" class="i pk" transform="translate(97.70859375, 73) scale(0.65)"></path><text x="13" y="111" class="tf">birth_date<tspan x="160.4" class="ty">date</tspan></text><text x="13" y="136" class="tf">first_name<tspan x="160.4" class="ty">vanchar</tspan></text><text x="13" y="161" class="tf">last_name<tspan x="160.4" class="ty">vanchar</tspan></text><text x="13" y="186" class="tf">sex<tspan x="160.4" class="ty">vanchar</tspan></text><text x="13" y="211" class="tf">hire_date<tspan x="160.4" class="ty">date</tspan></text></svg></g></g><text class="qdbd-link" x="10" y="20">www.quickdatabasediagrams.com</text></svg>